<svg xmlns="http://www.w3.org/2000/svg" width="384" height="400" viewBox="0 0 384 400">
  <defs>
    <style>
      .cls-1 {
        fill-rule: evenodd;
      }
    </style>
  </defs>
  <path id="Color_Fill_1" data-name="Color Fill 1" class="cls-1" d="M187,0h5c2.854,7.509,10.289,12.266,15,18,29.246,35.6,50.4,38.692,100,54,18.983,5.858,38.69-3.753,56-4,24.906,134.466,11.324,245.731-82,304-26.708,16.676-49.495,28-95,28H161C18.753,355.034-15.952,242.336,16,68H27c10.2,4.769,33.387,5.813,45,2,18.573-6.1,35.716-3.242,52-11C151.749,45.78,167.649,21.661,187,0ZM34,96c-1.131,27.937-15.728,63.343-7,97,7,27.006,7.592,53.71,18,77,23.313,52.167,67.371,105.828,142,106V43L162,66C131.49,89.842,86.683,97.13,34,96Zm36,76H83q14,24.5,28,49l27-49h13v83H138q-0.5-26-1-52-0.5,1-1,2l-20,34-11,1L83,201v54H70V172Zm191,1c-15.187,10.748-26.776,13.085-32,34-6.966,27.888,21.9,59.363,49,49C317.66,240.837,314.985,171.159,261,173Zm2,11c36.8-1.129,41.548,52.72,12,61-31.114,8.719-41.291-32.341-28-51Z"/>
</svg>
